#!OML:ASF F:\VICON\USERDATA\INSTALL\Justin_Nancy\Justin_Nancy.ASF
:FULLY-SPECIFIED
:DEGREES
378
root -5.70586 17.6585 12.0708 -43.7868 -88.4869 46.0608
lowerback 6.95402 0.353148 -1.75236
upperback 0.139808 0.402837 2.51629
thorax -3.78893 0.243433 3.55664
lowerneck -17.7513 -3.93191 -9.29383
upperneck 25.6687 -4.69048 5.44901
head 11.6913 -2.46838 2.84748
rclavicle 3.97569e-016 -6.36111e-015
rhumerus -37.7712 -22.5225 -73.2304
rradius 24.9582
rwrist 11.1193
rhand -13.8333 11.3991
rfingers 7.12502
rthumb 12.2898 -18.2198
lclavicle 3.97569e-016 -6.36111e-015
lhumerus -27.8032 5.50567 88.2292
lradius 30.0658
lwrist -7.6928
lhand -14.502 25.8302
lfingers 7.12502
lthumb 11.645 55.4866
rfemur -16.0778 -0.206159 25.5564
rtibia 15.3428
rfoot -2.22264 -2.93877
rtoes 29.7952
lfemur -2.11732 -2.63671 -22.4833
ltibia 44.2346
lfoot 23.8866 -16.0629
ltoes -0.715801
379
root -5.84952 17.6798 12.062 -18.9325 -88.6706 21.3857
lowerback 6.848 0.380973 -1.0634
upperback 0.0318881 0.50067 2.72366
thorax -3.84449 0.281371 3.37319
lowerneck -17.864 -4.0737 -10.0309
upperneck 25.8869 -4.8582 6.08952
head 11.8528 -2.53919 3.18975
rclavicle -4.47266e-015 -1.43125e-014
rhumerus -37.6492 -21.9799 -73.3224
rradius 24.7853
rwrist 10.9771
rhand -13.8288 11.5714
rfingers 7.12502
rthumb 12.2942 -18.0472
lclavicle -4.47266e-015 -1.43125e-014
lhumerus -27.7778 5.2551 88.7567
lradius 29.7251
lwrist -7.26576
lhand -15.1529 26.0899
lfingers 7.12502
lthumb 11.0173 55.7808
rfemur -15.0199 -0.556825 26.3021
rtibia 13.98
rfoot -1.94932 -2.54896
rtoes 30.3558
lfemur -4.03775 -2.61168 -21.5152
ltibia 46.7681
lfoot 26.0378 -17.1607
ltoes 2.0203
380
root -5.97366 17.6902 12.0316 27.8965 -88.0283 -25.333
lowerback 6.97272 0.342957 0.0261404
upperback -0.0789563 0.547989 3.2044
thorax -4.02769 0.285454 3.25469
lowerneck -17.8539 -4.29162 -10.6461
upperneck 25.9042 -5.11175 6.52786
head 11.9154 -2.65898 3.42025
rclavicle 1.88845e-015 -2.94201e-014
rhumerus -37.417 -21.6857 -73.4448
rradius 24.605
rwrist 10.609
rhand -13.7387 11.7631
rfingers 7.12502
rthumb 12.3811 -17.8503
lclavicle 1.88845e-015 -2.94201e-014
lhumerus -27.7321 4.33446 89.3878
lradius 29.3162
lwrist -6.06997
lhand -19.8985 26.5459
lfingers 7.12502
lthumb 6.43785 56.4281
rfemur -14.0833 -0.318901 27.8447
rtibia 12.8372
rfoot -1.98521 -3.31245
rtoes 30.7356
lfemur -6.07092 -2.56269 -19.5093
ltibia 49.2133
lfoot 27.4578 -18.4223
ltoes 3.32124
381
root -6.13117 17.7016 12.038 43.3633 -87.9099 -41.315
lowerback 7.25315 0.50157 0.566398
upperback 0.126228 0.801642 3.37836
thorax -3.98174 0.396637 3.10337
lowerneck -17.9333 -4.32822 -10.6532
upperneck 25.9237 -5.12442 6.43842
head 11.9385 -2.67413 3.385
rclavicle 4.37326e-015 -2.06736e-014
rhumerus -37.0784 -21.0029 -73.8769
rradius 24.7249
rwrist 9.65392
rhand -13.1752 11.9288
rfingers 7.12502
rthumb 12.9243 -17.651
lclavicle 4.37326e-015 -2.06736e-014
lhumerus -27.6984 3.82052 89.3777
lradius 29.2275
lwrist -7.8154
lhand -9.21543 22.5094
lfingers 7.12502
lthumb 16.7391 51.8078
rfemur -12.3155 -0.432646 28.3823
rtibia 11.5969
rfoot -1.93609 -3.12197
rtoes 31.8176
lfemur -6.98741 -2.43514 -18.9367
ltibia 51.4991
lfoot 26.7894 -18.0649
ltoes 3.82629
382
root -6.28885 17.7198 12.0366 40.6178 -88.6604 -38.5784
lowerback 7.06185 0.659031 -0.11058
upperback 0.160256 0.951645 3.23533
thorax -3.85514 0.484539 3.32132
lowerneck -17.9066 -4.22734 -10.6074
upperneck 25.9848 -5.01598 6.48062
head 11.9447 -2.61881 3.41238
rclavicle 3.57812e-015 1.59028e-014
rhumerus -36.7772 -19.8392 -74.5653
rradius 24.9203
rwrist 9.05523
rhand -12.9957 11.9048
rfingers 7.12502
rthumb 13.0974 -17.664
lclavicle 3.57812e-015 1.59028e-014
lhumerus -27.8161 3.46902 89.4211
lradius 29.0964
lwrist -7.69481
lhand -6.34027 20.0902
lfingers 7.12502
lthumb 19.5052 49.1318
rfemur -11.0768 -0.835664 27.8702
rtibia 10.3926
rfoot -1.59535 -2.269
rtoes 32.4817
lfemur -8.20173 -2.01766 -19.4678
ltibia 53.521
lfoot 25.1985 -16.6406
ltoes 4.14426
383
root -6.41077 17.719 12.0065 55.3845 -87.8824 -53.362
lowerback 7.28701 0.513152 0.404479
upperback 0.078454 0.809887 3.5398
thorax -4.05593 0.405081 3.36326
lowerneck -17.6998 -4.19039 -10.5634
upperneck 25.8503 -5.01823 6.55924
head 11.8512 -2.60811 3.43358
rclavicle -7.65321e-015 -3.89618e-014
rhumerus -36.323 -18.5496 -75.3041
rradius 24.9179
rwrist 9.05582
rhand -13.7147 11.5819
rfingers 7.12502
rthumb 12.4042 -18.0301
lclavicle -7.65321e-015 -3.89618e-014
lhumerus -27.8739 4.36509 88.9917
lradius 28.7281
lwrist -9.11409
lhand -6.90377 19.3002
lfingers 7.12502
lthumb 18.9634 48.3958
rfemur -10.2805 -0.903271 29.0199
rtibia 9.67137
rfoot -1.45179 -2.56466
rtoes 32.2093
lfemur -9.89433 -1.76421 -18.0612
ltibia 55.5638
lfoot 23.5719 -16.2682
ltoes 2.57125
384
root -6.54887 17.7188 11.9954 62.7434 -87.4774 -60.7724
lowerback 7.33249 0.515507 0.802183
upperback 0.0380635 0.850204 3.70901
thorax -4.12279 0.416733 3.31135
lowerneck -17.311 -4.24812 -10.519
upperneck 25.5864 -5.12398 6.48605
head 11.6791 -2.6634 3.3795
rclavicle -5.86415e-015 -2.22639e-014
rhumerus -36.0562 -17.1316 -75.8646
rradius 25.1415
rwrist 9.04964
rhand -13.5525 11.5537
rfingers 7.12502
rthumb 12.5605 -18.0488
lclavicle -5.86415e-015 -2.22639e-014
lhumerus -27.9781 3.98845 89.093
lradius 28.6717
lwrist -8.42519
lhand -12.032 23.4229
lfingers 7.12502
lthumb 14.0261 52.9296
rfemur -9.4606 -0.772459 29.6548
rtibia 9.20079
rfoot -1.55906 -2.81013
rtoes 32.0803
lfemur -11.2838 -1.5235 -17.3548
ltibia 57.3611
lfoot 21.5629 -15.7253
ltoes 1.26416
